#!OML:ASF F:\VICON\USERDATA\INSTALL\Justin_Nancy\Justin_Nancy.ASF
:FULLY-SPECIFIED
:DEGREES
52
root 7.74846 14.8242 -1.94959 -24.8427 -54.8122 34.4386
lowerback 18.2858 -0.0193657 -6.91238
upperback 3.5328 -1.57798 -1.28921
thorax -6.27968 -0.709754 2.91299
lowerneck -14.0597 1.78083 -10.4547
upperneck 13.0457 3.89063 4.27111
head 5.97536 1.70703 3.4074
rclavicle 1.1291e-013 -2.06736e-014
rhumerus -60.0868 1.77489 -89.6178
rradius 111.913
rwrist -13.4103
rhand -14.8003 29.5389
rfingers 7.12502
rthumb 11.3573 -0.133551
lclavicle 1.1291e-013 -2.06736e-014
lhumerus -27.5198 -16.7155 88.7657
lradius 128.183
lwrist 32.5766
lhand -7.77027 5.80575
lfingers 7.12502
lthumb 18.1299 34.9808
rfemur -61.6175 -15.8673 35.6914
rtibia 82.2441
rfoot -12.9586 -2.4927
rtoes -4.97599
lfemur -1.68255 3.91583 -16.9187
ltibia 36.1188
lfoot -30.7877 -0.568635
ltoes -26.2336
53
root 7.53711 14.8462 -1.64441 -25.2483 -55.2949 35.1546
lowerback 18.0702 -0.481467 -6.93086
upperback 3.23933 -2.17111 -1.22592
thorax -6.41883 -0.981712 3.12365
lowerneck -13.9083 1.96863 -10.8073
upperneck 13.1594 4.20311 4.23304
head 5.95647 1.83245 3.47547
rclavicle 4.6118e-014 1.74931e-014
rhumerus -62.2224 1.99158 -89.473
rradius 112.782
rwrist -13.7981
rhand -15.2982 29.9265
rfingers 7.12502
rthumb 10.8771 0.228247
lclavicle 4.6118e-014 1.74931e-014
lhumerus -25.7722 -14.5504 87.6115
lradius 129.131
lwrist 33.0234
lhand -8.0866 6.028
lfingers 7.12502
lthumb 17.8255 35.231
rfemur -61.5751 -16.2059 37.2036
rtibia 79.2842
rfoot -12.9639 -3.79809
rtoes -4.6287
lfemur 0.354519 3.59236 -17.8317
ltibia 34.4691
lfoot -30.2241 -1.75227
ltoes -21.4421
54
root 7.31119 14.874 -1.35593 -26.2148 -55.6547 36.5915
lowerback 17.2789 -0.715723 -7.10951
upperback 3.37471 -2.45535 -1.44616
thorax -5.81884 -1.1464 3.02198
lowerneck -14.0565 1.84575 -11.1245
upperneck 12.894 4.11832 4.23883
head 5.89852 1.78573 3.51805
rclavicle 8.50798e-014 -1.59028e-015
rhumerus -63.5822 1.54132 -89.3777
rradius 113.666
rwrist -14.3027
rhand -15.6529 30.6984
rfingers 7.12502
rthumb 10.535 0.982449
lclavicle 8.50798e-014 -1.59028e-015
lhumerus -23.527 -12.8292 86.4482
lradius 130.038
lwrist 33.6583
lhand -7.64246 6.06848
lfingers 7.12502
lthumb 18.2528 35.2321
rfemur -61.3461 -16.366 38.0571
rtibia 76.3683
rfoot -12.7275 -5.31584
rtoes -5.54025
lfemur 2.31155 3.63929 -19.174
ltibia 32.957
lfoot -29.5217 -1.5308
ltoes -21.9354
55
root 7.07066 14.921 -1.0741 -26.7987 -56.1335 37.3849
lowerback 17.0631 -0.909256 -7.31936
upperback 3.2074 -2.71435 -1.21175
thorax -5.83326 -1.26065 3.43983
lowerneck -14.1853 1.66854 -11.5724
upperneck 12.9921 4.0021 4.13339
head 5.95684 1.69435 3.55113
rclavicle -5.64548e-014 -9.54166e-015
rhumerus -65.4309 1.66651 -88.8137
rradius 114.711
rwrist -15.1418
rhand -15.5138 31.121
rfingers 7.12502
rthumb 10.6692 1.41184
lclavicle -5.64548e-014 -9.54166e-015
lhumerus -22.1516 -10.8394 85.9899
lradius 131.071
lwrist 34.6573
lhand -7.55529 5.84188
lfingers 7.12502
lthumb 18.3367 34.9976
rfemur -60.5894 -16.4165 38.906
rtibia 73.5839
rfoot -12.6873 -6.57359
rtoes -4.53446
lfemur 4.42868 4.15733 -19.9577
ltibia 31.4686
lfoot -28.3758 0.293498
ltoes -26.9949
56
root 6.81817 14.9796 -0.793754 -27.6728 -56.3976 38.5307
lowerback 16.6919 -1.32115 -7.31668
upperback 3.11874 -3.24662 -1.48946
thorax -5.68682 -1.52643 3.23649
lowerneck -14.3776 1.67665 -11.0448
upperneck 13.2015 3.98363 3.77
head 6.07633 1.67394 3.35726
rclavicle -5.96354e-014 5.725e-014
rhumerus -67.0811 1.86068 -89.186
rradius 115.576
rwrist -15.5455
rhand -15.6968 31.5619
rfingers 7.12502
rthumb 10.4926 1.84375
lclavicle -5.96354e-014 5.725e-014
lhumerus -21.0337 -8.80504 84.7256
lradius 132.049
lwrist 36.0978
lhand -7.48103 5.14052
lfingers 7.12502
lthumb 18.4081 34.2895
rfemur -59.7422 -16.3484 39.0271
rtibia 71.2007
rfoot -12.6349 -7.25486
rtoes -1.31429
lfemur 6.46874 4.74745 -20.9324
ltibia 30.061
lfoot -26.6826 1.74412
ltoes -31.5809
57
root 6.55861 15.036 -0.51598 -28.8142 -56.4005 40.1807
lowerback 16.0206 -1.69322 -7.82818
upperback 3.04799 -3.77605 -1.65803
thorax -5.32044 -1.7923 3.41423
lowerneck -14.1705 1.5952 -11.1015
upperneck 13.1401 3.91427 3.39205
head 6.03721 1.60535 3.2331
rclavicle 2.3059e-014 5.40694e-014
rhumerus -68.5719 2.21383 -89.3074
rradius 116.445
rwrist -15.8072
rhand -15.5263 31.6027
rfingers 7.12502
rthumb 10.6571 1.89293
lclavicle 2.3059e-014 5.40694e-014
lhumerus -20.209 -7.00293 83.7548
lradius 132.982
lwrist 37.1914
lhand -7.49017 5.00142
lfingers 7.12502
lthumb 18.3993 34.1513
rfemur -58.9715 -16.0698 38.4568
rtibia 69.1734
rfoot -12.3086 -7.85628
rtoes 1.15676
lfemur 8.07783 4.81398 -22.2714
ltibia 28.8942
lfoot -24.7673 1.20231
ltoes -31.4998
58
root 6.29237 15.0944 -0.241113 -29.7909 -56.4485 41.6943
lowerback 15.3157 -1.978 -8.21624
upperback 2.95404 -4.1553 -1.76464
thorax -4.97498 -1.98593 3.54931
lowerneck -14.705 1.32262 -11.2148
upperneck 13.1641 3.63943 3.38302
head 6.15485 1.46635 3.23599
rclavicle 4.05521e-014 3.33958e-014
rhumerus -69.9187 2.39163 -89.3271
rradius 117.251
rwrist -15.9301
rhand -14.8328 31.5736
rfingers 7.12502
rthumb 11.326 1.89946
lclavicle 4.05521e-014 3.33958e-014
lhumerus -19.5923 -5.77187 82.9677
lradius 133.751
lwrist 36.9733
lhand -6.95359 5.19913
lfingers 7.12502
lthumb 18.9155 34.2994
rfemur -58.092 -15.5935 37.7275
rtibia 67.5572
rfoot -11.9626 -8.4795
rtoes 2.01825
lfemur 9.52068 4.59799 -23.4318
ltibia 27.7376
lfoot -22.3395 -0.323628
ltoes -36.8362
